<?xml version="1.0" standalone="no"?><!DOCTYPE svg PUBLIC "-//W3C//DTD SVG 1.1//EN" "http://www.w3.org/Graphics/SVG/1.1/DTD/svg11.dtd"><svg t="1690359905941" class="icon" viewBox="0 0 1024 1024" version="1.1" xmlns="http://www.w3.org/2000/svg" p-id="7169" xmlns:xlink="http://www.w3.org/1999/xlink" width="200" height="200"><path d="M509.568 167.424c-26.453333-20.906667-53.888-38.613333-81.749333-52.778667-90.026667-45.824-190.037333-57.002667-272.981334-9.088C71.850667 153.429333 31.530667 245.674667 26.197333 346.538667c-5.333333 101.333333 23.722667 217.344 86.186667 325.461333 62.421333 108.117333 148.352 191.317333 238.762667 237.354667 51.242667 26.069333 105.728 40.96 158.421333 40.064 52.736 0.853333 107.221333-13.994667 158.421333-40.106667 90.453333-45.994667 176.384-129.194667 238.805334-237.312 62.421333-108.117333 91.52-224.128 86.186666-325.461333-5.333333-100.864-45.653333-193.109333-128.64-240.981334-82.944-47.914667-182.997333-36.693333-273.024 9.088-27.861333 14.165333-55.296 31.872-81.749333 52.778667z" fill="#c80000" fill-opacity=".85" p-id="7170"></path></svg>